<svg width="11" height="17" viewBox="0 0 11 17" fill="none" xmlns="http://www.w3.org/2000/svg">
<path d="M10.4679 1.00781C10.5795 1.11942 10.6353 1.24777 10.6353 1.39286C10.6353 1.53795 10.5795 1.66629 10.4679 1.7779L3.88867 8.35714L10.4679 14.9364C10.5795 15.048 10.6353 15.1763 10.6353 15.3214C10.6353 15.4665 10.5795 15.5949 10.4679 15.7065L9.63086 16.5435C9.51925 16.6551 9.3909 16.7109 9.24581 16.7109C9.10073 16.7109 8.97238 16.6551 8.86077 16.5435L1.05943 8.74219C0.947824 8.63058 0.89202 8.50223 0.89202 8.35714C0.89202 8.21205 0.947824 8.0837 1.05943 7.9721L8.86077 0.170758C8.97238 0.0591503 9.10073 0.00334668 9.24581 0.00334668C9.3909 0.00334668 9.51925 0.0591503 9.63086 0.170758L10.4679 1.00781Z" fill="#959595"/>
</svg>
