<svg width="11" height="17" viewBox="0 0 11 17" fill="none" xmlns="http://www.w3.org/2000/svg">
<path d="M9.9322 7.9721C10.0438 8.0837 10.0996 8.21205 10.0996 8.35714C10.0996 8.50223 10.0438 8.63058 9.9322 8.74219L2.13086 16.5435C2.01925 16.6551 1.8909 16.7109 1.74581 16.7109C1.60073 16.7109 1.47238 16.6551 1.36077 16.5435L0.523717 15.7065C0.412109 15.5949 0.356306 15.4665 0.356306 15.3214C0.356306 15.1763 0.412109 15.048 0.523717 14.9364L7.10296 8.35714L0.523717 1.7779C0.412109 1.66629 0.356306 1.53795 0.356306 1.39286C0.356306 1.24777 0.412109 1.11942 0.523717 1.00781L1.36077 0.170758C1.47238 0.0591503 1.60073 0.00334668 1.74581 0.00334668C1.8909 0.00334668 2.01925 0.0591503 2.13086 0.170758L9.9322 7.9721Z" fill="#959595"/>
</svg>
